0
SECTION
2
ENTITIES
0
POLYLINE
8
0
62
5
66
1
70
8
0
VERTEX
8
0
70
32
10
-5.362175885467496
20
8.213014400336824
30
0.3442585382331913
0
VERTEX
8
0
70
32
10
0.34439439072615663
20
2.376701548532133
30
4.029145653835656
0
VERTEX
8
0
70
32
10
0.34439439072615663
20
-0.7503872420772373
30
3.9770574366689857
0
VERTEX
8
0
70
32
10
0.34439439072615663
20
-3.676838405995152
30
4.029145653835656
0
VERTEX
8
0
70
32
10
-5.362175885467496
20
1.8899205934724028
30
0.3442585382331913
0
VERTEX
8
0
70
32
10
-5.362175885467496
20
8.213014400336824
30
0.3442585382331913
0
SEQEND
0
POLYLINE
8
0
62
5
66
1
70
8
0
VERTEX
8
0
70
32
10
0.34439439072615663
20
-3.676838405995152
30
4.029145653835656
0
VERTEX
8
0
70
32
10
-5.362175885467496
20
1.8899205934724028
30
0.3442585382331913
0
VERTEX
8
0
70
32
10
-8.328780866946977
20
1.889920593472401
30
0.3442585382331913
0
VERTEX
8
0
70
32
10
-1.1710792914848316
20
-5.334478297096622
30
5.051585767536665
0
VERTEX
8
0
70
32
10
0.34439439072615663
20
-3.676838405995152
30
4.029145653835656
0
SEQEND
0
POLYLINE
8
0
62
5
66
1
70
8
0
VERTEX
8
0
70
32
10
-1.1710792914848316
20
-5.334478297096622
30
5.051585767536665
0
VERTEX
8
0
70
32
10
-8.328780866946977
20
1.889920593472401
30
0.3442585382331913
0
VERTEX
8
0
70
32
10
-8.328780866946977
20
-6.04334321116836
30
0.3442585382331913
0
VERTEX
8
0
70
32
10
-4.932195759113359
20
-9.418485742526945
30
2.5275162915979763
0
VERTEX
8
0
70
32
10
-1.1710792914848316
20
-5.511601714752683
30
5.054738406185834
0
VERTEX
8
0
70
32
10
-1.1710792914848316
20
-5.334478297096622
30
5.051585767536665
0
SEQEND
0
POLYLINE
8
0
62
5
66
1
70
8
0
VERTEX
8
0
70
32
10
-4.932195759113359
20
-9.418485742526945
30
2.5275162915979763
0
VERTEX
8
0
70
32
10
-8.70907555395599
20
-9.418485742526945
30
2.5275162915979763
0
VERTEX
8
0
70
32
10
-12.066558575528965
20
-6.04334321116836
30
0.3442585382331913
0
VERTEX
8
0
70
32
10
-8.328780866946977
20
-6.04334321116836
30
0.3442585382331913
0
VERTEX
8
0
70
32
10
-4.932195759113359
20
-9.418485742526945
30
2.5275162915979763
0
SEQEND
0
POLYLINE
8
0
62
5
66
1
70
8
0
VERTEX
8
0
70
32
10
-12.066558575528965
20
-6.04334321116836
30
0.3442585382331913
0
VERTEX
8
0
70
32
10
-8.70907555395599
20
-9.418485742526945
30
2.5275162915979763
0
VERTEX
8
0
70
32
10
-12.066558575528967
20
-12.793628273885531
30
0.3442585382331913
0
VERTEX
8
0
70
32
10
-12.066558575528965
20
-6.04334321116836
30
0.3442585382331913
0
SEQEND
0
POLYLINE
8
0
62
5
66
1
70
8
0
VERTEX
8
0
70
32
10
6.779113250026326
20
-6.65013096778359
30
0.34425853823313446
0
VERTEX
8
0
70
32
10
6.779113250026326
20
-2.595920675084826
30
0.34425853823313446
0
VERTEX
8
0
70
32
10
6.00191288117895
20
-2.595920675084826
30
0.8347969916191573
0
VERTEX
8
0
70
32
10
6.00191288117895
20
-2.9007206653312263
30
0.8347969916191573
0
VERTEX
8
0
70
32
10
2.823409020942411
20
-0.7503872420772373
30
2.8409442223446604
0
VERTEX
8
0
70
32
10
6.00191288117895
20
1.4144380894392368
30
0.8347969916191573
0
VERTEX
8
0
70
32
10
6.00191288117895
20
1.1096380991928365
30
0.8347969916191573
0
VERTEX
8
0
70
32
10
6.830350382162202
20
1.1096380991928365
30
0.31191966583770636
0
VERTEX
8
0
70
32
10
6.830350382162202
20
5.149356483629117
30
0.31191966583770636
0
VERTEX
8
0
70
32
10
0.9408438837032022
20
-0.7503872420772373
30
3.9770574366689857
0
VERTEX
8
0
70
32
10
6.779113250026326
20
-6.65013096778359
30
0.34425853823313446
0
SEQEND
0
POLYLINE
8
0
62
5
66
1
70
8
0
VERTEX
8
0
70
32
10
6.268406629327925
20
16.611496328805686
30
0.0
0
VERTEX
8
0
70
32
10
-1.925965528742689
20
16.611496328805686
30
0.0
0
VERTEX
8
0
70
32
10
2.1712205502926185
20
12.504097978811538
30
2.756873066383207
0
VERTEX
8
0
70
32
10
6.268406629327925
20
16.611496328805686
30
0.0
0
SEQEND
0
POLYLINE
8
0
62
5
66
1
70
8
0
VERTEX
8
0
70
32
10
6.00191288117895
20
1.4144380894392368
30
0.8347969916191573
0
VERTEX
8
0
70
32
10
2.823409020942411
20
-0.7503872420772373
30
2.8409442223446604
0
VERTEX
8
0
70
32
10
7.270062206859302
20
-0.7503872420772373
30
2.8363515564662976
0
VERTEX
8
0
70
32
10
7.270062206859302
20
1.4144380894392368
30
0.8347969916191573
0
VERTEX
8
0
70
32
10
6.00191288117895
20
1.4144380894392368
30
0.8347969916191573
0
SEQEND
0
POLYLINE
8
0
62
5
66
1
70
8
0
VERTEX
8
0
70
32
10
7.270062206859302
20
-0.7503872420772373
30
2.8363515564662976
0
VERTEX
8
0
70
32
10
2.823409020942411
20
-0.7503872420772373
30
2.8409442223446604
0
VERTEX
8
0
70
32
10
6.00191288117895
20
-2.9007206653312263
30
0.8347969916191573
0
VERTEX
8
0
70
32
10
7.270062206859302
20
-2.9007206653312263
30
0.8347969916191573
0
VERTEX
8
0
70
32
10
7.270062206859302
20
-0.7503872420772373
30
2.8363515564662976
0
SEQEND
0
POLYLINE
8
0
62
5
66
1
70
8
0
VERTEX
8
0
70
32
10
6.268406629327925
20
12.96270855177008
30
0.0
0
VERTEX
8
0
70
32
10
6.479117726234408
20
12.96270855177008
30
0.0
0
VERTEX
8
0
70
32
10
6.479117726234408
20
9.231556245013664
30
2.4641508503872274
0
VERTEX
8
0
70
32
10
2.6617759068342846
20
9.231556245013664
30
2.4641508503871705
0
VERTEX
8
0
70
32
10
6.268406629327925
20
12.96270855177008
30
0.0
0
SEQEND
0
POLYLINE
8
0
62
5
66
1
70
8
0
VERTEX
8
0
70
32
10
6.268406629327925
20
16.611496328805686
30
0.0
0
VERTEX
8
0
70
32
10
6.268406629327925
20
12.96270855177008
30
0.0
0
VERTEX
8
0
70
32
10
2.6617759068342846
20
9.231556245013664
30
2.4641508503871705
0
VERTEX
8
0
70
32
10
6.268406629327925
20
5.518007530457455
30
0.0
0
VERTEX
8
0
70
32
10
6.268406629327925
20
4.844556493382717
30
0.0
0
VERTEX
8
0
70
32
10
6.0053900784666085
20
4.844556493382717
30
0.31191966583770636
0
VERTEX
8
0
70
32
10
6.0053900784666085
20
5.149356483629117
30
0.31191966583770636
0
VERTEX
8
0
70
32
10
0.34439439072615663
20
-0.7503872420772373
30
3.9770574366689857
0
VERTEX
8
0
70
32
10
0.34439439072615663
20
2.376701548532133
30
4.029145653835656
0
VERTEX
8
0
70
32
10
2.1712205502926185
20
4.388279313913852
30
2.756873066383207
0
VERTEX
8
0
70
32
10
2.1712205502926185
20
12.504097978811538
30
2.756873066383207
0
VERTEX
8
0
70
32
10
6.268406629327925
20
16.611496328805686
30
0.0
0
SEQEND
0
POLYLINE
8
0
62
5
66
1
70
8
0
VERTEX
8
0
70
32
10
2.6617759068342846
20
9.231556245013664
30
2.4641508503871705
0
VERTEX
8
0
70
32
10
6.479117726234408
20
9.231556245013664
30
2.4641508503872274
0
VERTEX
8
0
70
32
10
6.479117726234408
20
5.518007530457455
30
0.0
0
VERTEX
8
0
70
32
10
6.268406629327925
20
5.518007530457455
30
0.0
0
VERTEX
8
0
70
32
10
2.6617759068342846
20
9.231556245013664
30
2.4641508503871705
0
SEQEND
0
POLYLINE
8
0
62
5
66
1
70
8
0
VERTEX
8
0
70
32
10
-12.066558575528967
20
-12.793628273885531
30
0.3442585382331913
0
VERTEX
8
0
70
32
10
-8.70907555395599
20
-9.418485742526945
30
2.5275162915979763
0
VERTEX
8
0
70
32
10
-4.932195759113359
20
-9.418485742526945
30
2.5275162915979763
0
VERTEX
8
0
70
32
10
-1.1710792914848316
20
-5.511601714752683
30
5.054738406185834
0
VERTEX
8
0
70
32
10
3.6765096228730973
20
-10.290161031598789
30
1.9636610423452225
0
VERTEX
8
0
70
32
10
4.4280567586407065
20
-10.290161031598789
30
1.9636610423452225
0
VERTEX
8
0
70
32
10
6.830350382162202
20
-12.793628273885531
30
0.3442585382331913
0
VERTEX
8
0
70
32
10
-12.066558575528967
20
-12.793628273885531
30
0.3442585382331913
0
SEQEND
0
POLYLINE
8
0
62
5
66
1
70
8
0
VERTEX
8
0
70
32
10
6.830350382162202
20
-12.793628273885531
30
0.3442585382331913
0
VERTEX
8
0
70
32
10
4.4280567586407065
20
-10.290161031598789
30
1.9636610423452225
0
VERTEX
8
0
70
32
10
6.830350382162202
20
-7.786693789312047
30
0.3442585382331913
0
VERTEX
8
0
70
32
10
6.830350382162202
20
-12.793628273885531
30
0.3442585382331913
0
SEQEND
0
POLYLINE
8
0
62
5
66
1
70
8
0
VERTEX
8
0
70
32
10
6.830350382162202
20
-7.786693789312047
30
0.3442585382331913
0
VERTEX
8
0
70
32
10
6.0053900784666085
20
-7.786693789312047
30
0.34425853823313446
0
VERTEX
8
0
70
32
10
3.6765096228730973
20
-10.290161031598789
30
1.9636610423452225
0
VERTEX
8
0
70
32
10
4.4280567586407065
20
-10.290161031598789
30
1.9636610423452225
0
VERTEX
8
0
70
32
10
6.830350382162202
20
-7.786693789312047
30
0.3442585382331913
0
SEQEND
0
POLYLINE
8
0
62
5
66
1
70
8
0
VERTEX
8
0
70
32
10
6.779113250026326
20
-6.65013096778359
30
0.34425853823313446
0
VERTEX
8
0
70
32
10
0.9408438837032022
20
-0.7503872420772373
30
3.9770574366689857
0
VERTEX
8
0
70
32
10
0.34439439072615663
20
-0.7503872420772373
30
3.9770574366689857
0
VERTEX
8
0
70
32
10
6.00191288117895
20
-6.65013096778359
30
0.34425853823313446
0
VERTEX
8
0
70
32
10
6.779113250026326
20
-6.65013096778359
30
0.34425853823313446
0
SEQEND
0
POLYLINE
8
0
62
5
66
1
70
8
0
VERTEX
8
0
70
32
10
0.34439439072615663
20
-0.7503872420772373
30
3.9770574366689857
0
VERTEX
8
0
70
32
10
6.00191288117895
20
-6.65013096778359
30
0.34425853823313446
0
VERTEX
8
0
70
32
10
6.00191288117895
20
-6.3453309775371896
30
0.34425853823313446
0
VERTEX
8
0
70
32
10
6.268406629327925
20
-6.3453309775371896
30
0.23259183926353444
0
VERTEX
8
0
70
32
10
6.258834988921079
20
-8.091493779558448
30
0.23259183926353444
0
VERTEX
8
0
70
32
10
6.0053900784666085
20
-8.091493779558448
30
0.34425853823313446
0
VERTEX
8
0
70
32
10
6.0053900784666085
20
-7.786693789312047
30
0.34425853823313446
0
VERTEX
8
0
70
32
10
3.6765096228730973
20
-10.290161031598789
30
1.9636610423452225
0
VERTEX
8
0
70
32
10
-1.1710792914848316
20
-5.511601714752683
30
5.054738406185834
0
VERTEX
8
0
70
32
10
-1.1710792914848316
20
-5.334478297096622
30
5.051585767536665
0
VERTEX
8
0
70
32
10
0.34439439072615663
20
-3.676838405995152
30
4.029145653835656
0
VERTEX
8
0
70
32
10
0.34439439072615663
20
-0.7503872420772373
30
3.9770574366689857
0
SEQEND
0
POLYLINE
8
0
62
5
66
1
70
8
0
VERTEX
8
0
70
32
10
0.34439439072615663
20
-0.7503872420772373
30
3.9770574366689857
0
VERTEX
8
0
70
32
10
6.0053900784666085
20
5.149356483629117
30
0.31191966583770636
0
VERTEX
8
0
70
32
10
6.830350382162202
20
5.149356483629117
30
0.31191966583770636
0
VERTEX
8
0
70
32
10
0.9408438837032022
20
-0.7503872420772373
30
3.9770574366689857
0
VERTEX
8
0
70
32
10
0.34439439072615663
20
-0.7503872420772373
30
3.9770574366689857
0
SEQEND
0
POLYLINE
8
0
62
5
66
1
70
8
0
VERTEX
8
0
70
32
10
2.1712205502926185
20
4.388279313913852
30
2.756873066383207
0
VERTEX
8
0
70
32
10
-1.549974369509233
20
8.213014400336823
30
0.3442585382331913
0
VERTEX
8
0
70
32
10
-5.362175885467496
20
8.213014400336824
30
0.3442585382331913
0
VERTEX
8
0
70
32
10
0.34439439072615663
20
2.376701548532133
30
4.029145653835656
0
VERTEX
8
0
70
32
10
2.1712205502926185
20
4.388279313913852
30
2.756873066383207
0
SEQEND
0
POLYLINE
8
0
62
5
66
1
70
8
0
VERTEX
8
0
70
32
10
2.1712205502926185
20
4.388279313913852
30
2.756873066383207
0
VERTEX
8
0
70
32
10
-1.549974369509233
20
8.213014400336823
30
0.3442585382331913
0
VERTEX
8
0
70
32
10
-1.549974369509233
20
7.908214410090422
30
0.3442585382331913
0
VERTEX
8
0
70
32
10
-1.925965528742689
20
7.908214410090422
30
0.0
0
VERTEX
8
0
70
32
10
-1.925965528742689
20
16.611496328805686
30
0.0
0
VERTEX
8
0
70
32
10
2.1712205502926185
20
12.504097978811538
30
2.756873066383207
0
VERTEX
8
0
70
32
10
2.1712205502926185
20
4.388279313913852
30
2.756873066383207
0
SEQEND
0
ENDSEC
0
EOF